<?xml version="1.0" encoding="UTF-8" standalone="no"?>
<svg
   xmlns:dc="http://purl.org/dc/elements/1.1/"
   xmlns:cc="http://creativecommons.org/ns#"
   xmlns:rdf="http://www.w3.org/1999/02/22-rdf-syntax-ns#"
   xmlns:svg="http://www.w3.org/2000/svg"
   xmlns="http://www.w3.org/2000/svg"
   xmlns:sodipodi="http://sodipodi.sourceforge.net/DTD/sodipodi-0.dtd"
   xmlns:inkscape="http://www.inkscape.org/namespaces/inkscape"
   height="107.8702"
   width="335.44519"
   version="1.1"
   id="svg16"
   sodipodi:docname="74-2.svg"
   inkscape:version="0.92.1 r15371">
  <metadata
     id="metadata22">
    <rdf:RDF>
      <cc:Work
         rdf:about="">
        <dc:format>image/svg+xml</dc:format>
        <dc:type
           rdf:resource="http://purl.org/dc/dcmitype/StillImage" />
        <dc:title></dc:title>
      </cc:Work>
    </rdf:RDF>
  </metadata>
  <defs
     id="defs20" />
  <sodipodi:namedview
     pagecolor="#ffffff"
     bordercolor="#666666"
     borderopacity="1"
     objecttolerance="10"
     gridtolerance="10"
     guidetolerance="10"
     inkscape:pageopacity="0"
     inkscape:pageshadow="2"
     inkscape:window-width="1920"
     inkscape:window-height="1001"
     id="namedview18"
     showgrid="false"
     inkscape:zoom="5.2044062"
     inkscape:cx="167.7226"
     inkscape:cy="53.935101"
     inkscape:window-x="-9"
     inkscape:window-y="-9"
     inkscape:window-maximized="1"
     inkscape:current-layer="svg16"
     fit-margin-top="0"
     fit-margin-left="0"
     fit-margin-right="0"
     fit-margin-bottom="0" />
  <rect
     style="fill:#000000;fill-opacity:1;fill-rule:nonzero;stroke:none;stroke-width:2.72979832;stroke-opacity:1"
     id="rect38"
     width="335.44519"
     height="107.8702"
     x="0"
     y="0" />
  <g
     id="g36"
     transform="translate(8.5601015,8.6350994)">
    <path
       d="M 312.05,10.2 H 299.3 v 6.95 h 12.15 V 26.2 H 299.3 v 7.1 h 12.75 v 9.05 H 288.6 V 1.15 h 23.45 v 9.05 m -68.75,7.7 q -0.6,1.95 -1.7,3.45 -1.15,1.65 -2.85,2.6 -1.75,1.15 -3.85,1.5 l 12.9,16.9 h -13.3 l -10.15,-15.9 h -0.15 v 15.9 H 213.55 V 1.15 h 16 q 3.1,0 5.7,0.75 2.6,0.75 4.45,2.35 2,1.5 3.1,3.95 1,2.35 1,5.6 0,2.25 -0.5,4.1 m 22.25,8.3 10.05,-25.05 h 11.5 l -17.5,41.2 h -8.3 L 243.95,1.15 h 11.65 l 9.95,25.05 M 225.3,9.35 h -1.1 v 10.3 h 1.1 l 2.65,-0.15 2.35,-0.75 q 1.1,-0.5 1.75,-1.6 0.7,-1 0.7,-2.6 0,-1.75 -0.7,-2.75 -0.65,-1 -1.75,-1.6 -1.15,-0.5 -2.35,-0.6 L 225.3,9.35 m -17.2,15 -0.15,3.95 -0.5,3.75 -1.35,3.6 q -0.9,1.7 -2.35,3.2 l -2.85,2.1 q -1.75,0.9 -3.5,1.4 l -3.6,0.85 -3.7,0.25 -3.75,-0.25 -3.6,-0.85 q -1.7,-0.5 -3.35,-1.4 l -2.95,-2.1 q -1.5,-1.5 -2.35,-3.2 -0.9,-1.75 -1.25,-3.6 -0.5,-1.9 -0.65,-3.75 l -0.1,-3.95 V 1.15 h 10.8 v 21.7 l 0.1,3.95 q 0.15,2 0.9,3.6 0.75,1.65 2.2,2.65 1.4,0.95 4,0.95 2.6,0 4.1,-0.95 1.35,-1 2.1,-2.65 0.75,-1.6 0.85,-3.6 l 0.25,-3.95 V 1.15 h 10.7 v 23.2 m -45.2,-12.8 q -2.45,-1.1 -5.2,-1.1 -2.5,0 -4.45,0.85 -2.15,0.9 -3.5,2.5 -1.5,1.5 -2.25,3.6 -0.85,2.1 -0.85,4.45 0,2.5 0.85,4.5 0.75,2.1 2.25,3.6 1.5,1.45 3.5,2.2 2.1,0.9 4.55,0.9 2.65,0 5.1,-1.15 2.5,-1.25 4.1,-3.2 v 12.75 l -4.7,1.5 -4.75,0.5 q -4.3,0 -8.3,-1.6 -3.85,-1.5 -7.05,-4.5 -3.5,-3.1 -5.1,-6.95 -1.6,-3.95 -1.6,-8.55 0,-4.35 1.6,-8.2 1.6,-3.85 4.45,-6.95 3.1,-3.1 7.2,-4.8 4.1,-1.9 8.45,-1.9 l 5.1,0.65 q 2.35,0.5 4.7,1.5 v 12.9 q -1.6,-2.25 -4.1,-3.5"
       id="path2"
       inkscape:connector-curvature="0"
       style="fill:#ffffff;fill-rule:evenodd;stroke:none" />
    <path
       d="M 277.05,61.55 H 264.3 v 6.35 h 12.15 v 8.2 H 264.3 v 6.3 h 12.75 v 8.2 H 253.6 V 53.4 h 23.45 v 8.15 M 92.55,27.3 93.2,27.55 h 0.35 L 87.35,34.5 81,40.95 80.4,40.6 Q 71.6,34.65 68.35,22.85 L 67.85,20.6 67.6,18.75 v -2 L 67.75,16.5 68,16.3 72.45,15.4 q 2.85,-0.75 4.6,-0.85 3.1,6.45 9.55,9.65 l 1.85,1.15 2.35,1.1 1.75,0.85"
       id="path4"
       inkscape:connector-curvature="0"
       style="fill:#ff6d6d;fill-rule:evenodd;stroke:none" />
    <path
       d="m 313.3,59.85 q 1,2.1 1,4.95 0,2.1 -0.5,3.7 -0.6,1.9 -1.75,3.25 -1.1,1.35 -2.85,2.35 -1.75,1 -3.85,1.25 l 12.9,15.25 H 305 L 294.8,76.35 h -0.1 V 90.6 H 284 V 53.4 h 16 q 3.1,0 5.75,0.7 2.6,0.65 4.45,2.15 2,1.35 3.1,3.6 m -18.6,0.95 v 9.35 h 1.1 l 2.6,-0.15 2.35,-0.6 q 1.15,-0.5 1.75,-1.5 0.75,-0.85 0.75,-2.35 0,-1.65 -0.75,-2.5 l -1.75,-1.5 -2.35,-0.5 -2.6,-0.25 h -1.1 M 110.65,7.45 111.8,7.2 l -1.65,2.15 -2.7,3.2 -3.25,3.6 -8.15,8.55 Q 95.8,24.45 95.15,24.35 L 94.3,24.1 Q 93.05,23.6 92.45,23.2 88.85,21.6 86.1,19.25 82.9,16.5 81.4,13.4 l 4.35,-0.85 10.65,-2.5 13.75,-2.6 h 0.5"
       id="path6"
       inkscape:connector-curvature="0"
       style="fill:#ff6dde;fill-rule:evenodd;stroke:none" />
    <path
       d="m 200.75,67.9 v 8.2 H 188.6 v 6.3 h 12.8 v 8.2 H 177.9 V 53.4 h 23.5 v 8.15 h -12.8 v 6.35 h 12.15 M 36.95,44.55 q 0,1.65 0.4,3.75 0.5,3.85 1.95,8.45 l 2.75,6.8 q -4.6,0 -8.3,-1.75 -2.6,-1.1 -6.35,-3.85 L 24.8,55.5 22.7,53.25 Q 19.35,49.55 18,44.3 16.25,38.5 17.25,32.15 L 42.2,23.7 q -4.25,7.6 -5.25,17.5 v 3.35"
       id="path8"
       inkscape:connector-curvature="0"
       style="fill:#b9ff32;fill-rule:evenodd;stroke:none" />
    <path
       d="m 168.85,61.55 h -12.9 v 6.35 h 11.8 v 8.2 h -11.8 V 90.6 H 145.3 V 53.4 h 23.55 v 8.15 M 9.15,35.65 q 0.4,-0.4 0.75,-0.5 0.5,-0.25 0.25,0 -0.85,1 -0.6,2.85 0,1.25 0.5,2.95 0.75,5.35 2.7,10.05 1.9,4.1 4.85,8.1 l 3.75,3.6 q 4.45,3.35 7.8,4.95 4.7,2.35 9.9,2.95 l 4.6,0.15 q 3,0.25 4.1,0 l 3.1,-0.15 -1.1,1.5 q -3.25,4.25 -8.3,6.95 -5,2.75 -10.7,3.5 Q 24.7,83.4 19.2,81.9 13.25,80.3 8.8,76.45 4.85,73 2.6,67.25 0.25,61.8 0.1,55.75 -0.15,49.4 2.1,44.05 4.45,38.6 9.15,35.65"
       id="path10"
       inkscape:connector-curvature="0"
       style="fill:#32beff;fill-rule:evenodd;stroke:none" />
    <path
       d="m 238,53.4 h 11.5 L 232.05,90.6 H 223.7 L 206.35,53.4 H 218 L 227.95,76.1 238,53.4 M 59.55,18.25 q 1.5,-0.5 2.6,-0.5 0.15,6.2 2.25,11.55 1.6,4.1 4.95,8.7 l 3.5,3.2 3.8,3.5 q 0.65,-0.15 0.75,0.25 l -3.7,4.2 -3.85,4.1 Q 66,56.5 62.75,60.2 l -3.35,3.35 -0.2,0.25 -4,3.25 q -4.1,-2.15 -6.8,-7.45 -2.75,-5 -3.5,-11.3 -1,-6.45 0.15,-12.3 1.35,-6.3 4.7,-10.15 1.75,-2.4 3.45,-4 1.65,-1.5 3.85,-2.95 l 2.5,-0.65"
       id="path12"
       inkscape:connector-curvature="0"
       style="fill:#fff116;fill-rule:evenodd;stroke:none" />
  </g>
</svg>
